# xmcd CD database file
#
# Track frame offsets:
#	150
#	16685
#	37919
#	51905
#	73414
#	91389
#	110326
#	127572
#	145824
#	161694
#
# Disc length: 2355 seconds
#
# Revision: 0
# Processed by: cddbd v1.5.2PL0 Copyright (c) Steve Scherf et al.
# Submitted via: CDex 1.51
#
DISCID=7b09310a
DTITLE=Tammy Jackson and Cliff Clegg - Empty Pockets Full Of Promise
DYEAR=2003
DGENRE=Country
TTITLE0=Look What You've Done To Me
TTITLE1=Only Lonely
TTITLE2=Getting Better At Goodbye
TTITLE3=So Far To Fall
TTITLE4=Find Out For Ourselves
TTITLE5=Like I'm Cryin' Now
TTITLE6=Only If You Ask Me To
TTITLE7=Will You Remember My Name
TTITLE8=Harper Valley PTA
TTITLE9=Live In A Hiding Place
EXTD=YEAR: 2003
EXTT0=
EXTT1=
EXTT2=
EXTT3=
EXTT4=
EXTT5=
EXTT6=
EXTT7=
EXTT8=
EXTT9=
PLAYORDER=
